<svg width="190" height="53" viewBox="0 0 190 53" fill="none" xmlns="http://www.w3.org/2000/svg">
<g clip-path="url(#clip0)">
<path d="M78.458 30.3399H85.7122L76.784 16.4691L84.7357 8.40137H77.063L70.0879 16.186V8.40137H63.8103V30.4815H70.0879V23.1214L72.599 20.5737L78.458 30.3399Z" fill="white"/>
<path d="M146.852 12.9129L149.781 23.8114H143.782L146.852 12.9129ZM150.758 27.0668L151.595 30.1807H158.291L150.06 8.10059H143.643L135.412 30.1807H142.108L142.945 27.0668H150.758Z" fill="white"/>
<path d="M97.789 25.2675C94.441 25.2675 91.7904 22.5783 91.7904 19.1813C91.7904 15.7844 94.441 13.0952 97.789 13.0952C101.137 13.0952 103.788 15.7844 103.788 19.1813C103.788 22.5783 101.137 25.2675 97.789 25.2675ZM97.789 7.43359C91.3719 7.43359 86.2103 12.6705 86.2103 19.1813C86.2103 25.6921 91.3719 30.9291 97.789 30.9291C104.206 30.9291 109.368 25.6921 109.368 19.1813C109.368 12.8121 104.206 7.43359 97.789 7.43359Z" fill="white"/>
<path d="M129.205 21.486C128.368 23.7506 126.136 25.3076 123.625 25.3076C120.277 25.3076 117.627 22.6183 117.627 19.2214C117.627 15.8244 120.277 13.1352 123.625 13.1352C126.136 13.1352 128.368 14.6921 129.205 16.9567H135.064C134.088 11.5783 129.345 7.47363 123.765 7.47363C117.348 7.47363 112.186 12.7106 112.186 19.2214C112.186 25.7322 117.348 30.9691 123.765 30.9691C129.345 30.9691 134.088 26.8645 135.064 21.486H129.205Z" fill="white"/>
<path d="M175.701 21.486C174.864 23.7506 172.632 25.3076 170.121 25.3076C166.773 25.3076 164.123 22.6183 164.123 19.2214C164.123 15.8244 166.773 13.1352 170.121 13.1352C172.632 13.1352 174.864 14.6921 175.701 16.9567H181.56C180.584 11.5783 175.841 7.47363 170.261 7.47363C163.844 7.47363 158.682 12.7106 158.682 19.2214C158.682 25.7322 163.844 30.9691 170.261 30.9691C175.841 30.9691 180.584 26.8645 181.56 21.486H175.701Z" fill="white"/>
<path d="M63.8329 45.4491V37.3066H64.8639V40.6376H68.9879V37.3066H70.0189V45.4491H68.9879V41.5999H64.8639V45.4491H63.8329Z" fill="white"/>
<path d="M70.9762 45.4491L74.0692 37.3066H75.1739L78.4142 45.4491H77.2359L76.2785 43.0064H72.9646L72.0808 45.4491H70.9762ZM73.2591 42.1181H75.984L75.1739 39.8234C74.9529 39.1572 74.732 38.565 74.5847 38.1209C74.5111 38.639 74.3638 39.1572 74.1429 39.6754L73.2591 42.1181Z" fill="white"/>
<path d="M84.6739 42.5626L85.7049 42.8587C85.484 43.747 85.1158 44.4132 84.5266 44.8573C83.9375 45.3014 83.2747 45.5235 82.391 45.5235C81.5072 45.5235 80.8444 45.3755 80.3289 45.0054C79.8134 44.6352 79.3716 44.1171 79.077 43.4509C78.7824 42.7847 78.6351 42.0445 78.6351 41.2302C78.6351 40.416 78.7824 39.6017 79.077 39.0095C79.3716 38.4174 79.8134 37.8992 80.4026 37.6031C80.9917 37.307 81.6545 37.085 82.3173 37.085C83.1274 37.085 83.7902 37.307 84.3057 37.6771C84.8212 38.1213 85.263 38.7135 85.4103 39.4537L84.3793 39.6757C84.1584 39.0836 83.9375 38.6394 83.5692 38.3433C83.201 38.0473 82.7592 37.9732 82.2437 37.9732C81.6545 37.9732 81.139 38.1213 80.6971 38.4174C80.2553 38.7135 80.0344 39.1576 79.8134 39.6017C79.5925 40.0459 79.5925 40.638 79.5925 41.1562C79.5925 41.8224 79.6661 42.4886 79.8871 43.0068C80.108 43.5249 80.4026 43.895 80.7708 44.1911C81.2127 44.4132 81.6545 44.5612 82.0964 44.5612C82.6855 44.5612 83.201 44.4132 83.5692 44.0431C84.3057 43.821 84.5266 43.3028 84.6739 42.5626Z" fill="white"/>
<path d="M88.7244 45.4491V38.2689H86.0732V37.3066H92.4066V38.2689H89.7554V45.4491H88.7244Z" fill="white"/>
<path d="M93.4375 45.4491V37.3066H96.4569C96.9724 37.3066 97.4142 37.3066 97.6352 37.3807C98.0034 37.4547 98.3716 37.6027 98.5925 37.7508C98.8871 37.9728 99.0344 38.1949 99.2553 38.565C99.4026 38.9351 99.4763 39.3052 99.4763 39.6754C99.4763 40.3416 99.2553 40.9337 98.8135 41.4519C98.3716 41.896 97.6352 42.1921 96.4569 42.1921H94.5422V45.5231H93.4375V45.4491ZM94.5422 41.1558H96.6042C97.267 41.1558 97.7825 41.0078 98.077 40.7857C98.3716 40.4896 98.5189 40.1935 98.5189 39.6754C98.5189 39.3052 98.4453 39.0092 98.298 38.7871C98.1507 38.565 97.9298 38.417 97.6352 38.2689C97.4879 38.1949 97.1197 38.1949 96.6778 38.1949H94.5422V41.1558Z" fill="white"/>
<path d="M100.36 41.4523C100.36 40.1199 100.728 39.0095 101.391 38.2693C102.054 37.5291 103.011 37.085 104.116 37.085C104.852 37.085 105.515 37.233 106.104 37.6031C106.693 37.9732 107.135 38.4914 107.43 39.0836C107.724 39.7498 107.872 40.49 107.872 41.3042C107.872 42.1185 107.724 42.8587 107.356 43.5249C107.062 44.1911 106.546 44.6352 105.957 45.0054C105.368 45.3755 104.705 45.5235 104.042 45.5235C103.306 45.5235 102.643 45.3015 102.054 44.9313C101.465 44.5612 101.023 44.0431 100.728 43.3769C100.507 42.8587 100.36 42.1925 100.36 41.4523ZM101.391 41.4523C101.391 42.4146 101.686 43.2288 102.201 43.747C102.717 44.3392 103.379 44.5612 104.116 44.5612C104.926 44.5612 105.589 44.2651 106.104 43.673C106.62 43.0808 106.841 42.2665 106.841 41.2302C106.841 40.564 106.767 39.9718 106.546 39.5277C106.325 39.0095 106.031 38.6394 105.589 38.3433C105.147 38.0473 104.705 37.8992 104.189 37.8992C103.453 37.8992 102.79 38.1953 102.275 38.7135C101.686 39.3797 101.391 40.2679 101.391 41.4523Z" fill="white"/>
<path d="M109.344 37.3066H110.302V43.7466L114.573 37.3066H115.604V45.4491H114.647V39.0092L110.375 45.4491H109.344V37.3066Z" fill="white"/>
<path d="M117.224 45.4499V37.3074H118.845L120.759 43.0812C120.907 43.5993 121.054 44.0435 121.127 44.2655C121.201 43.9694 121.348 43.5253 121.569 42.9331L123.484 37.2334H124.883V45.3759H123.852V38.5658L121.569 45.3759H120.612L118.329 38.4178V45.3759H117.224V45.4499Z" fill="white"/>
<path d="M129.596 45.4491V37.3066H132.616C133.205 37.3066 133.72 37.3807 134.089 37.5287C134.457 37.6768 134.751 37.9728 134.972 38.2689C135.193 38.639 135.267 38.9351 135.267 39.3793C135.267 39.7494 135.193 40.0455 134.972 40.3416C134.751 40.6376 134.531 40.9337 134.162 41.0818C134.678 41.2298 135.046 41.4519 135.267 41.822C135.562 42.1921 135.635 42.5622 135.635 43.0804C135.635 43.4505 135.562 43.8206 135.414 44.1167C135.267 44.4128 135.046 44.7089 134.825 44.8569C134.604 45.005 134.31 45.153 133.941 45.227C133.573 45.301 133.131 45.3751 132.689 45.3751H129.596V45.4491ZM130.627 40.7117H132.321C132.763 40.7117 133.131 40.7117 133.352 40.6376C133.647 40.5636 133.794 40.4156 133.941 40.2675C134.089 40.0455 134.162 39.8234 134.162 39.5273C134.162 39.2312 134.089 39.0092 133.941 38.7871C133.794 38.565 133.647 38.417 133.426 38.343C133.205 38.2689 132.763 38.1949 132.248 38.1949H130.627V40.7117ZM130.627 44.4868H132.616C132.984 44.4868 133.205 44.4868 133.352 44.4128C133.573 44.3388 133.794 44.2647 133.941 44.1907C134.089 44.1167 134.236 43.9686 134.31 43.7466C134.383 43.5245 134.457 43.3024 134.457 43.0804C134.457 42.7843 134.383 42.4882 134.236 42.2661C134.089 42.0441 133.868 41.896 133.573 41.822C133.279 41.748 132.91 41.674 132.395 41.674H130.627V44.4868Z" fill="white"/>
<path d="M135.782 45.4491L138.875 37.3066H139.98L143.22 45.4491H142.042L141.085 43.0064H137.771L136.887 45.4491H135.782ZM138.139 42.1181H140.864L140.054 39.8234C139.833 39.1572 139.612 38.565 139.465 38.1209C139.391 38.639 139.244 39.1572 139.023 39.6754L138.139 42.1181Z" fill="white"/>
<path d="M144.031 45.4499V37.3074H145.651L147.565 43.0812C147.713 43.5993 147.86 44.0435 147.934 44.2655C148.007 43.9694 148.155 43.5253 148.375 42.9331L150.29 37.2334H151.689V45.3759H150.658V38.5658L148.375 45.3759H147.418L145.135 38.4178V45.3759H144.031V45.4499Z" fill="white"/>
<path d="M162.147 42.5626L163.178 42.8587C162.957 43.747 162.589 44.4132 162 44.8573C161.41 45.3014 160.748 45.5235 159.864 45.5235C158.98 45.5235 158.317 45.3755 157.802 45.0054C157.286 44.6352 156.844 44.1171 156.55 43.4509C156.255 42.7847 156.108 42.0445 156.108 41.2302C156.108 40.416 156.255 39.6017 156.55 39.0095C156.844 38.3433 157.286 37.8992 157.875 37.6031C158.465 37.307 159.127 37.085 159.79 37.085C160.6 37.085 161.263 37.307 161.779 37.6771C162.294 38.1213 162.736 38.7135 162.883 39.4537L161.852 39.6757C161.631 39.0836 161.41 38.6394 161.042 38.3433C160.674 38.0473 160.232 37.9732 159.717 37.9732C159.127 37.9732 158.612 38.1213 158.17 38.4174C157.728 38.7135 157.507 39.1576 157.286 39.6017C157.065 40.0459 157.065 40.638 157.065 41.1562C157.065 41.8224 157.139 42.4886 157.36 43.0068C157.581 43.5249 157.875 43.895 158.317 44.1911C158.759 44.4132 159.201 44.5612 159.643 44.5612C160.232 44.5612 160.748 44.4132 161.116 44.0431C161.705 43.821 162 43.3028 162.147 42.5626Z" fill="white"/>
<path d="M164.503 45.4491V37.3066H168.038C168.775 37.3066 169.29 37.3807 169.658 37.5287C170.027 37.6768 170.321 37.8988 170.542 38.2689C170.763 38.639 170.91 39.0832 170.91 39.5273C170.91 40.1195 170.763 40.5636 170.395 41.0078C170.027 41.3779 169.438 41.674 168.701 41.748C168.996 41.896 169.217 42.0441 169.364 42.1181C169.658 42.4142 169.953 42.7843 170.248 43.2284L171.647 45.4491H170.321L169.29 43.7466C168.996 43.2284 168.701 42.8583 168.554 42.6362C168.333 42.3402 168.186 42.1921 168.038 42.1181C167.891 42.0441 167.744 41.97 167.523 41.896C167.376 41.896 167.228 41.822 166.934 41.822H165.682V45.4491H164.503ZM165.534 40.8597H167.817C168.333 40.8597 168.701 40.7857 168.922 40.7117C169.217 40.6376 169.364 40.4156 169.511 40.1935C169.658 39.9714 169.732 39.7494 169.732 39.4533C169.732 39.0832 169.585 38.7131 169.29 38.491C168.996 38.2689 168.554 38.1209 167.965 38.1209H165.461V40.8597H165.534Z" fill="white"/>
<path d="M172.457 45.4499V37.3074H174.077L175.992 43.0812C176.139 43.5993 176.286 44.0435 176.36 44.2655C176.434 43.9694 176.581 43.5253 176.802 42.9331L178.717 37.2334H180.116V45.3759H179.085V38.5658L176.802 45.3759H175.845L173.562 38.4178V45.3759H172.457V45.4499Z" fill="white"/>
<path fill-rule="evenodd" clip-rule="evenodd" d="M14.9496 50.4122C1.84105 44.0463 -3.68221 28.2795 2.57748 15.1036C8.83717 1.92758 24.5232 -3.69812 37.7054 2.59378C50.8139 8.81166 56.4108 24.5784 50.2248 37.8284C44.0387 51.0784 28.4263 56.7041 15.2441 50.5603" fill="white"/>
<path d="M22.3608 18.3164C22.3608 20.5684 20.5597 22.3789 18.3192 22.3789C16.0787 22.3789 14.2775 20.5684 14.2775 18.3164C14.2775 16.0644 16.0787 14.2539 18.3192 14.2539C20.5597 14.2539 22.3608 16.0644 22.3608 18.3164Z" fill="#177CB9"/>
<path d="M30.4592 18.3164C30.4592 20.5684 28.658 22.3789 26.4175 22.3789C24.177 22.3789 22.3759 20.5684 22.3759 18.3164C22.3759 16.0644 24.177 14.2539 26.4175 14.2539C28.658 14.2539 30.4592 16.0644 30.4592 18.3164Z" fill="#177CB9"/>
<path d="M38.5566 18.3164C38.5566 20.5684 36.7554 22.3789 34.515 22.3789C32.2745 22.3789 30.4733 20.5684 30.4733 18.3164C30.4733 16.0644 32.2745 14.2539 34.515 14.2539C36.7115 14.2539 38.5566 16.0644 38.5566 18.3164Z" fill="#177CB9"/>
<path d="M30.4592 34.582C30.4592 36.834 28.658 38.6445 26.4175 38.6445C24.177 38.6445 22.3759 36.834 22.3759 34.582C22.3759 32.33 24.177 30.5195 26.4175 30.5195C28.658 30.5195 30.4592 32.33 30.4592 34.582Z" fill="#177CB9"/>
<path d="M22.3768 34.5674C22.3768 36.8194 20.5756 38.6298 18.3351 38.6298C16.0946 38.6298 14.2934 36.8194 14.2934 34.5674C14.2934 32.3153 16.0946 30.5049 18.3351 30.5049C20.5756 30.5049 22.3768 32.3595 22.3768 34.5674Z" fill="#177CB9"/>
<path d="M38.5491 34.6045C38.5491 36.8565 36.7479 38.6669 34.5074 38.6669C32.2669 38.6669 30.4658 36.8565 30.4658 34.6045C30.4658 32.3524 32.2669 30.542 34.5074 30.542C36.704 30.542 38.5491 32.3524 38.5491 34.6045Z" fill="#177CB9"/>
<path d="M44.9836 26.4277C44.9836 27.7524 43.9293 28.8563 42.5674 28.8563C41.2495 28.8563 40.1512 27.7966 40.1512 26.4277C40.1512 25.103 41.2055 23.999 42.5674 23.999C43.9293 24.0432 44.9836 25.103 44.9836 26.4277Z" fill="#177CB9"/>
<path d="M28.8043 10.1904C28.8043 11.5151 27.7499 12.619 26.388 12.619C25.0701 12.619 23.9718 11.5593 23.9718 10.1904C23.9718 8.86565 25.0262 7.76172 26.388 7.76172C27.7499 7.76172 28.8043 8.86565 28.8043 10.1904Z" fill="#177CB9"/>
<path d="M12.5497 26.4277C12.5497 27.7524 11.4953 28.8563 10.1334 28.8563C8.81551 28.8563 7.71722 27.7966 7.71722 26.4277C7.71722 25.103 8.77158 23.999 10.1334 23.999C11.4953 24.0432 12.5497 25.103 12.5497 26.4277Z" fill="#177CB9"/>
<path d="M11.4316 18.3167C11.4316 18.9791 10.9044 19.509 10.2455 19.509C9.58651 19.509 9.05933 18.9791 9.05933 18.3167C9.05933 17.6543 9.58651 17.1245 10.2455 17.1245C10.9044 17.0803 11.4316 17.6543 11.4316 18.3167Z" fill="#177CB9"/>
<path d="M11.4316 34.5823C11.4316 35.2447 10.9044 35.7746 10.2455 35.7746C9.58651 35.7746 9.05933 35.2447 9.05933 34.5823C9.05933 33.92 9.58651 33.3901 10.2455 33.3901C10.9044 33.3459 11.4316 33.92 11.4316 34.5823Z" fill="#177CB9"/>
<path d="M19.529 42.7259C19.529 43.3882 19.0018 43.9181 18.3428 43.9181C17.6839 43.9181 17.1567 43.3882 17.1567 42.7259C17.1567 42.0635 17.6839 41.5336 18.3428 41.5336C19.0018 41.4895 19.529 42.0635 19.529 42.7259Z" fill="#177CB9"/>
<path d="M35.7009 42.7259C35.7009 43.3882 35.1737 43.9181 34.5147 43.9181C33.8558 43.9181 33.3286 43.3882 33.3286 42.7259C33.3286 42.0635 33.8558 41.5336 34.5147 41.5336C35.1298 41.4895 35.7009 42.0635 35.7009 42.7259Z" fill="#177CB9"/>
<path d="M43.8067 34.5823C43.8067 35.2447 43.2795 35.7746 42.6205 35.7746C41.9616 35.7746 41.4344 35.2447 41.4344 34.5823C41.4344 33.92 41.9616 33.3901 42.6205 33.3901C43.2356 33.3459 43.8067 33.92 43.8067 34.5823Z" fill="#177CB9"/>
<path d="M43.8067 18.3167C43.8067 18.9791 43.2795 19.509 42.6205 19.509C41.9616 19.509 41.4344 18.9791 41.4344 18.3167C41.4344 17.6543 41.9616 17.1245 42.6205 17.1245C43.2356 17.0803 43.8067 17.6543 43.8067 18.3167Z" fill="#177CB9"/>
<path d="M35.7098 10.1903C35.7098 10.8527 35.1826 11.3825 34.5237 11.3825C33.8647 11.3825 33.3375 10.8527 33.3375 10.1903C33.3375 9.52793 33.8647 8.99805 34.5237 8.99805C35.1826 8.99805 35.7098 9.52793 35.7098 10.1903Z" fill="#177CB9"/>
<path d="M19.513 10.1903C19.513 10.8527 18.9859 11.3825 18.3269 11.3825C17.6679 11.3825 17.1407 10.8527 17.1407 10.1903C17.1407 9.52793 17.6679 8.99805 18.3269 8.99805C18.9859 8.99805 19.513 9.52793 19.513 10.1903Z" fill="#177CB9"/>
<path d="M28.9078 42.8388C28.9078 44.1635 27.8534 45.2675 26.4915 45.2675C25.1736 45.2675 24.0753 44.2077 24.0753 42.8388C24.0753 41.5141 25.1297 40.4102 26.4915 40.4102C27.8095 40.4543 28.9078 41.5141 28.9078 42.8388Z" fill="#177CB9"/>
<path d="M38.5566 26.4277C38.5566 28.6797 36.7554 30.4902 34.515 30.4902C32.2745 30.4902 30.4733 28.6797 30.4733 26.4277C30.4733 24.1757 32.2745 22.3652 34.515 22.3652C36.7115 22.3652 38.5566 24.1757 38.5566 26.4277Z" fill="#177CB9"/>
<path d="M22.3608 26.4277C22.3608 28.6797 20.5597 30.4902 18.3192 30.4902C16.0787 30.4902 14.2775 28.6797 14.2775 26.4277C14.2775 24.1757 16.0787 22.3652 18.3192 22.3652C20.5597 22.3652 22.3608 24.1757 22.3608 26.4277Z" fill="#177CB9"/>
<path d="M26.5069 28.8269C25.189 28.8269 24.0907 27.7671 24.0907 26.3982C24.0907 25.0735 25.145 23.9695 26.5069 23.9695C27.8249 23.9695 28.9231 25.0293 28.9231 26.3982C28.8792 27.7671 27.8249 28.8269 26.5069 28.8269ZM26.4191 22.3799C24.1786 22.3799 22.3774 24.1903 22.3774 26.4424C22.3774 28.6944 24.1786 30.5048 26.4191 30.5048C28.6596 30.5048 30.4607 28.6944 30.4607 26.4424C30.4607 24.1903 28.6596 22.3799 26.4191 22.3799Z" fill="#B3B3B3"/>
</g>
<defs>
<clipPath id="clip0">
<rect width="190" height="53" fill="white"/>
</clipPath>
</defs>
</svg>
